<svg width="997" height="419" viewBox="0 0 997 419" fill="none" xmlns="http://www.w3.org/2000/svg">
<rect x="38" y="150" width="476" height="130" fill="#48BF91"/>
<rect x="588.5" y="2.5" width="406" height="406" rx="47.5" fill="white" stroke="black" stroke-width="5"/>
<circle cx="804" cy="206" r="125" fill="black"/>
<circle cx="778" cy="206" r="122.5" fill="#48BF91" stroke="black" stroke-width="5"/>
<path d="M301.967 127.55C294.631 127.55 288.069 125.948 282.282 122.745C276.599 119.542 272.156 114.943 268.952 108.95C265.749 102.853 264.147 95.62 264.147 87.25C264.147 78.88 265.749 71.6983 268.952 65.705C272.156 59.6083 276.547 54.9583 282.127 51.755C287.707 48.5517 294.062 46.95 301.192 46.95C308.426 46.95 314.574 48.5 319.637 51.6C324.804 54.7 328.731 58.9367 331.417 64.31C334.104 69.58 335.447 75.5217 335.447 82.135C335.447 83.8917 335.396 85.4933 335.292 86.94C335.189 88.3867 335.034 89.6783 334.827 90.815H272.207V79.81H329.402L323.047 81.05C323.047 73.61 320.981 67.875 316.847 63.845C312.817 59.815 307.496 57.8 300.882 57.8C295.819 57.8 291.427 58.9883 287.707 61.365C284.091 63.6383 281.249 66.9967 279.182 71.44C277.219 75.78 276.237 81.05 276.237 87.25C276.237 93.3467 277.271 98.6167 279.337 103.06C281.404 107.503 284.297 110.913 288.017 113.29C291.841 115.563 296.387 116.7 301.657 116.7C307.341 116.7 311.939 115.615 315.452 113.445C319.069 111.275 321.962 108.33 324.132 104.61L333.897 110.345C331.934 113.858 329.402 116.907 326.302 119.49C323.306 122.073 319.741 124.088 315.607 125.535C311.577 126.878 307.031 127.55 301.967 127.55ZM304.447 9.74999H317.932L302.742 35.635H292.667L304.447 9.74999ZM382.745 127.55C375.409 127.55 368.847 125.948 363.06 122.745C357.377 119.542 352.934 114.943 349.73 108.95C346.527 102.853 344.925 95.62 344.925 87.25C344.925 78.88 346.527 71.6983 349.73 65.705C352.934 59.6083 357.325 54.9583 362.905 51.755C368.485 48.5517 374.84 46.95 381.97 46.95C389.204 46.95 395.352 48.5 400.415 51.6C405.582 54.7 409.509 58.9367 412.195 64.31C414.882 69.58 416.225 75.5217 416.225 82.135C416.225 83.8917 416.174 85.4933 416.07 86.94C415.967 88.3867 415.812 89.6783 415.605 90.815H352.985V79.81H410.18L403.825 81.05C403.825 73.61 401.759 67.875 397.625 63.845C393.595 59.815 388.274 57.8 381.66 57.8C376.597 57.8 372.205 58.9883 368.485 61.365C364.869 63.6383 362.027 66.9967 359.96 71.44C357.997 75.78 357.015 81.05 357.015 87.25C357.015 93.3467 358.049 98.6167 360.115 103.06C362.182 107.503 365.075 110.913 368.795 113.29C372.619 115.563 377.165 116.7 382.435 116.7C388.119 116.7 392.717 115.615 396.23 113.445C399.847 111.275 402.74 108.33 404.91 104.61L414.675 110.345C412.712 113.858 410.18 116.907 407.08 119.49C404.084 122.073 400.519 124.088 396.385 125.535C392.355 126.878 387.809 127.55 382.745 127.55ZM385.225 9.74999H398.71L383.52 35.635H373.445L385.225 9.74999ZM431.128 126V48.5H441.978L443.063 65.86L441.048 64.155C442.702 60.0217 444.923 56.715 447.713 54.235C450.503 51.6517 453.707 49.7917 457.323 48.655C461.043 47.5183 464.867 46.95 468.793 46.95C474.373 46.95 479.437 48.035 483.983 50.205C488.53 52.2717 492.147 55.475 494.833 59.815C497.623 64.155 499.018 69.6833 499.018 76.4V126H486.618V80.74C486.618 72.1633 484.758 66.2217 481.038 62.915C477.422 59.505 472.927 57.8 467.553 57.8C463.833 57.8 460.113 58.6783 456.393 60.435C452.673 62.1917 449.573 65.0333 447.093 68.96C444.717 72.8867 443.528 78.1567 443.528 84.77V126H431.128ZM238.472 306.5L204.992 339.98L202.047 342.925L176.627 368.345V352.845L222.817 306.5H238.472ZM182.827 270.85V384H170.427V270.85H182.827ZM206.077 333.625L240.332 384H225.297L195.692 340.6L206.077 333.625ZM249.691 384V306.5H260.541L261.626 323.86L259.611 322.155C261.264 318.022 263.486 314.715 266.276 312.235C269.066 309.652 272.269 307.792 275.886 306.655C279.606 305.518 283.429 304.95 287.356 304.95C292.936 304.95 297.999 306.035 302.546 308.205C307.093 310.272 310.709 313.475 313.396 317.815C316.186 322.155 317.581 327.683 317.581 334.4V384H305.181V338.74C305.181 330.163 303.321 324.222 299.601 320.915C295.984 317.505 291.489 315.8 286.116 315.8C282.396 315.8 278.676 316.678 274.956 318.435C271.236 320.192 268.136 323.033 265.656 326.96C263.279 330.887 262.091 336.157 262.091 342.77V384H249.691ZM369.063 304.95C376.399 304.95 382.858 306.552 388.438 309.755C394.121 312.958 398.564 317.608 401.768 323.705C404.971 329.698 406.573 336.88 406.573 345.25C406.573 353.62 404.971 360.853 401.768 366.95C398.564 372.943 394.121 377.542 388.438 380.745C382.858 383.948 376.399 385.55 369.063 385.55C361.829 385.55 355.371 383.948 349.688 380.745C344.004 377.542 339.561 372.943 336.358 366.95C333.154 360.853 331.553 353.62 331.553 345.25C331.553 336.88 333.154 329.698 336.358 323.705C339.561 317.608 344.004 312.958 349.688 309.755C355.371 306.552 361.829 304.95 369.063 304.95ZM369.063 315.645C363.793 315.645 359.298 316.833 355.578 319.21C351.858 321.587 348.964 324.997 346.898 329.44C344.934 333.78 343.953 339.05 343.953 345.25C343.953 351.347 344.934 356.617 346.898 361.06C348.964 365.503 351.858 368.913 355.578 371.29C359.298 373.667 363.793 374.855 369.063 374.855C374.333 374.855 378.828 373.667 382.548 371.29C386.268 368.913 389.109 365.503 391.073 361.06C393.139 356.617 394.173 351.347 394.173 345.25C394.173 339.05 393.139 333.78 391.073 329.44C389.109 324.997 386.268 321.587 382.548 319.21C378.828 316.833 374.333 315.645 369.063 315.645ZM421.237 416.55V306.5H432.087L433.172 325.41L431.467 323.24C432.811 319.623 434.826 316.472 437.512 313.785C440.199 310.995 443.454 308.825 447.277 307.275C451.101 305.725 455.234 304.95 459.677 304.95C465.981 304.95 471.767 306.552 477.037 309.755C482.411 312.958 486.699 317.557 489.902 323.55C493.106 329.543 494.707 336.777 494.707 345.25C494.707 353.62 493.054 360.853 489.747 366.95C486.544 372.943 482.256 377.542 476.882 380.745C471.509 383.948 465.619 385.55 459.212 385.55C452.806 385.55 447.174 384 442.317 380.9C437.564 377.697 434.154 373.667 432.087 368.81L433.637 366.485V416.55H421.237ZM457.972 374.7C465.619 374.7 471.561 372.013 475.797 366.64C480.137 361.267 482.307 354.137 482.307 345.25C482.307 336.363 480.189 329.233 475.952 323.86C471.819 318.487 465.981 315.8 458.437 315.8C453.477 315.8 449.137 317.04 445.417 319.52C441.697 321.897 438.804 325.307 436.737 329.75C434.671 334.09 433.637 339.257 433.637 345.25C433.637 351.14 434.619 356.307 436.582 360.75C438.649 365.193 441.491 368.655 445.107 371.135C448.827 373.512 453.116 374.7 457.972 374.7Z" fill="black"/>
<path d="M124.583 163.24L127.373 174.245C127.27 174.245 127.115 174.245 126.908 174.245C126.701 174.245 126.495 174.245 126.288 174.245C121.225 174.245 117.298 175.278 114.508 177.345C111.821 179.308 110.478 182.512 110.478 186.955L102.883 183.08C102.883 179.05 103.813 175.537 105.673 172.54C107.533 169.543 110.065 167.27 113.268 165.72C116.471 164.067 119.985 163.24 123.808 163.24C123.911 163.24 124.015 163.24 124.118 163.24C124.325 163.24 124.48 163.24 124.583 163.24ZM101.023 245.08C108.36 245.08 114.095 246.785 118.228 250.195C122.361 253.502 124.428 257.945 124.428 263.525C124.428 268.588 122.723 272.98 119.313 276.7C116.006 280.42 111.511 283.262 105.828 285.225C100.248 287.292 93.9447 288.325 86.918 288.325C74.7247 288.325 65.5797 286.258 59.483 282.125C53.4897 277.992 50.493 273.032 50.493 267.245C50.493 263.112 51.8364 259.392 54.523 256.085C57.313 252.882 61.963 251.073 68.473 250.66L67.388 252.985C63.8747 252.055 60.878 250.505 58.398 248.335C56.0214 246.062 54.833 242.807 54.833 238.57C54.833 234.333 56.383 230.717 59.483 227.72C62.6864 224.62 67.388 222.708 73.588 221.985L81.803 226.17H80.253C75.1897 226.687 71.573 227.978 69.403 230.045C67.3364 232.008 66.303 234.178 66.303 236.555C66.303 239.448 67.3364 241.618 69.403 243.065C71.573 244.408 74.5697 245.08 78.393 245.08H101.023ZM86.763 277.94C92.7564 277.94 97.6647 277.32 101.488 276.08C105.415 274.84 108.308 273.238 110.168 271.275C112.028 269.312 112.958 267.193 112.958 264.92C112.958 262.13 111.821 259.908 109.548 258.255C107.378 256.602 103.4 255.775 97.613 255.775H73.743C70.4364 255.775 67.6464 256.602 65.373 258.255C63.0997 260.012 61.963 262.388 61.963 265.385C61.963 269.208 64.133 272.257 68.473 274.53C72.9164 276.803 79.013 277.94 86.763 277.94ZM85.678 175.95C91.878 175.95 97.3547 177.087 102.108 179.36C106.965 181.53 110.736 184.578 113.423 188.505C116.11 192.432 117.453 196.978 117.453 202.145C117.453 207.208 116.11 211.755 113.423 215.785C110.736 219.712 106.965 222.812 102.108 225.085C97.3547 227.255 91.878 228.34 85.678 228.34C75.448 228.34 67.5947 225.912 62.118 221.055C56.6414 216.095 53.903 209.792 53.903 202.145C53.903 196.978 55.2464 192.432 57.933 188.505C60.723 184.578 64.4947 181.53 69.248 179.36C74.0014 177.087 79.478 175.95 85.678 175.95ZM85.678 186.025C80.3047 186.025 75.8097 187.523 72.193 190.52C68.5764 193.413 66.768 197.288 66.768 202.145C66.768 206.898 68.5764 210.773 72.193 213.77C75.8097 216.767 80.3047 218.265 85.678 218.265C91.0514 218.265 95.5464 216.767 99.163 213.77C102.78 210.773 104.588 206.898 104.588 202.145C104.588 197.288 102.78 193.413 99.163 190.52C95.5464 187.523 91.0514 186.025 85.678 186.025ZM133.143 255V177.5H143.218L144.923 190.21C147.093 185.457 150.245 181.892 154.378 179.515C158.615 177.138 163.73 175.95 169.723 175.95C171.066 175.95 172.513 176.053 174.063 176.26C175.716 176.467 177.111 176.88 178.248 177.5L176.078 188.815C174.941 188.402 173.701 188.092 172.358 187.885C171.015 187.678 169.103 187.575 166.623 187.575C163.42 187.575 160.165 188.505 156.858 190.365C153.655 192.225 150.968 195.067 148.798 198.89C146.628 202.61 145.543 207.363 145.543 213.15V255H133.143ZM217.398 175.95C224.734 175.95 231.193 177.552 236.773 180.755C242.456 183.958 246.899 188.608 250.103 194.705C253.306 200.698 254.908 207.88 254.908 216.25C254.908 224.62 253.306 231.853 250.103 237.95C246.899 243.943 242.456 248.542 236.773 251.745C231.193 254.948 224.734 256.55 217.398 256.55C210.164 256.55 203.706 254.948 198.023 251.745C192.339 248.542 187.896 243.943 184.693 237.95C181.489 231.853 179.888 224.62 179.888 216.25C179.888 207.88 181.489 200.698 184.693 194.705C187.896 188.608 192.339 183.958 198.023 180.755C203.706 177.552 210.164 175.95 217.398 175.95ZM217.398 186.645C212.128 186.645 207.633 187.833 203.913 190.21C200.193 192.587 197.299 195.997 195.233 200.44C193.269 204.78 192.288 210.05 192.288 216.25C192.288 222.347 193.269 227.617 195.233 232.06C197.299 236.503 200.193 239.913 203.913 242.29C207.633 244.667 212.128 245.855 217.398 245.855C222.668 245.855 227.163 244.667 230.883 242.29C234.603 239.913 237.444 236.503 239.408 232.06C241.474 227.617 242.508 222.347 242.508 216.25C242.508 210.05 241.474 204.78 239.408 200.44C237.444 195.997 234.603 192.587 230.883 190.21C227.163 187.833 222.668 186.645 217.398 186.645ZM301.967 256.55C294.631 256.55 288.069 254.948 282.282 251.745C276.599 248.542 272.156 243.943 268.952 237.95C265.749 231.853 264.147 224.62 264.147 216.25C264.147 207.88 265.749 200.698 268.952 194.705C272.156 188.608 276.547 183.958 282.127 180.755C287.707 177.552 294.062 175.95 301.192 175.95C308.426 175.95 314.574 177.5 319.637 180.6C324.804 183.7 328.731 187.937 331.417 193.31C334.104 198.58 335.447 204.522 335.447 211.135C335.447 212.892 335.396 214.493 335.292 215.94C335.189 217.387 335.034 218.678 334.827 219.815H272.207V208.81H329.402L323.047 210.05C323.047 202.61 320.981 196.875 316.847 192.845C312.817 188.815 307.496 186.8 300.882 186.8C295.819 186.8 291.427 187.988 287.707 190.365C284.091 192.638 281.249 195.997 279.182 200.44C277.219 204.78 276.237 210.05 276.237 216.25C276.237 222.347 277.271 227.617 279.337 232.06C281.404 236.503 284.297 239.913 288.017 242.29C291.841 244.563 296.387 245.7 301.657 245.7C307.341 245.7 311.939 244.615 315.452 242.445C319.069 240.275 321.962 237.33 324.132 233.61L333.897 239.345C331.934 242.858 329.402 245.907 326.302 248.49C323.306 251.073 319.741 253.088 315.607 254.535C311.577 255.878 307.031 256.55 301.967 256.55ZM350.35 255V177.5H361.2L362.285 194.86L360.27 193.155C361.924 189.022 364.145 185.715 366.935 183.235C369.725 180.652 372.929 178.792 376.545 177.655C380.265 176.518 384.089 175.95 388.015 175.95C393.595 175.95 398.659 177.035 403.205 179.205C407.752 181.272 411.369 184.475 414.055 188.815C416.845 193.155 418.24 198.683 418.24 205.4V255H405.84V209.74C405.84 201.163 403.98 195.222 400.26 191.915C396.644 188.505 392.149 186.8 386.775 186.8C383.055 186.8 379.335 187.678 375.615 189.435C371.895 191.192 368.795 194.033 366.315 197.96C363.939 201.887 362.75 207.157 362.75 213.77V255H350.35ZM470.032 256.55C462.695 256.55 456.134 254.948 450.347 251.745C444.664 248.542 440.22 243.943 437.017 237.95C433.814 231.853 432.212 224.62 432.212 216.25C432.212 207.88 433.814 200.698 437.017 194.705C440.22 188.608 444.612 183.958 450.192 180.755C455.772 177.552 462.127 175.95 469.257 175.95C476.49 175.95 482.639 177.5 487.702 180.6C492.869 183.7 496.795 187.937 499.482 193.31C502.169 198.58 503.512 204.522 503.512 211.135C503.512 212.892 503.46 214.493 503.357 215.94C503.254 217.387 503.099 218.678 502.892 219.815H440.272V208.81H497.467L491.112 210.05C491.112 202.61 489.045 196.875 484.912 192.845C480.882 188.815 475.56 186.8 468.947 186.8C463.884 186.8 459.492 187.988 455.772 190.365C452.155 192.638 449.314 195.997 447.247 200.44C445.284 204.78 444.302 210.05 444.302 216.25C444.302 222.347 445.335 227.617 447.402 232.06C449.469 236.503 452.362 239.913 456.082 242.29C459.905 244.563 464.452 245.7 469.722 245.7C475.405 245.7 480.004 244.615 483.517 242.445C487.134 240.275 490.027 237.33 492.197 233.61L501.962 239.345C499.999 242.858 497.467 245.907 494.367 248.49C491.37 251.073 487.805 253.088 483.672 254.535C479.642 255.878 475.095 256.55 470.032 256.55Z" fill="white"/>
</svg>
